<svg width="10" height="18" viewBox="0 0 10 18" fill="none" xmlns="http://www.w3.org/2000/svg">
<path d="M0 8.87531C0 9.13087 0.0920251 9.3559 0.286299 9.55012L8.39471 17.4745C8.56853 17.6586 8.79346 17.7506 9.05932 17.7506C9.59104 17.7506 10 17.3518 10 16.8201C10 16.5543 9.88753 16.3293 9.72393 16.1555L2.28017 8.87531L9.72393 1.59509C9.88753 1.42128 10 1.1861 10 0.930477C10 0.398774 9.59104 0 9.05932 0C8.79346 0 8.56853 0.0920251 8.39471 0.26585L0.286299 8.20044C0.0920251 8.38449 0 8.61966 0 8.87531Z" fill="white"/>
</svg>
