<svg width="10" height="20" viewBox="0 0 10 20" fill="none" xmlns="http://www.w3.org/2000/svg">
<path d="M9.79999 10.0001C9.79999 9.73806 9.7098 9.50734 9.51941 9.3082L1.57317 1.18324C1.40283 0.99448 1.18239 0.900097 0.92185 0.900097C0.400764 0.900097 -1.23978e-05 1.30903 -1.23978e-05 1.85421C-1.23978e-05 2.12671 0.110208 2.35744 0.270535 2.53564L7.56542 10.0001L0.270535 17.4646C0.110208 17.6428 -1.23978e-05 17.884 -1.23978e-05 18.1461C-1.23978e-05 18.6912 0.400764 19.1001 0.92185 19.1001C1.18239 19.1001 1.40283 19.0057 1.57317 18.8275L9.51941 10.6921C9.7098 10.5033 9.79999 10.2622 9.79999 10.0001Z" fill="#EF6147"/>
</svg>
