<svg width="28" height="28" viewBox="0 0 28 28" class="icon" fill="#EF6147" xmlns="http://www.w3.org/2000/svg">
<g clip-path="url(#clip0_31_10469)">
<path d="M16.1572 19.586C18.4205 18.6409 16.2898 15.018 14.466 13.1775C12.5592 11.2873 9.15177 9.1069 8.05744 11.4946L3.1412 22.3882C2.59403 23.6069 3.72982 24.7759 4.9568 24.2618L16.1572 19.586ZM4.1858 22.8359L8.32273 13.6583C8.73725 14.7112 9.57459 15.9051 10.6524 16.9911C11.7135 18.044 12.8742 18.8648 13.9105 19.2876L4.51741 23.1924C4.23554 23.3085 4.05315 23.1344 4.1858 22.8359ZM9.22639 11.7433C9.77356 11.1878 11.6638 12.0003 13.6452 13.9983C15.6515 15.9797 16.4474 17.8782 15.9002 18.4171C15.3448 18.9808 13.4545 18.1683 11.4648 16.1704C9.4751 14.1889 8.67093 12.2905 9.22639 11.7433Z" />
<path d="M10.4451 5.81561C10.9425 5.81561 11.3571 5.40938 11.3571 4.90366C11.3571 4.40623 10.9425 4 10.4451 4C9.93108 4 9.53314 4.40623 9.53314 4.90366C9.53314 5.40938 9.93108 5.81561 10.4451 5.81561ZM11.5394 7.36592C11.4814 7.05918 11.2824 6.80217 10.9591 6.80217C10.6524 6.81047 10.3373 7.06747 10.4036 7.39909C10.7767 9.34734 10.7767 11.3536 10.4036 13.335C10.329 13.6583 10.6524 13.9071 10.9508 13.9154C11.2659 13.9154 11.4731 13.6667 11.5312 13.3599C11.9208 11.3371 11.9208 9.36392 11.5394 7.36592ZM15.5686 7.24986C16.4391 7.24986 17.1272 6.55346 17.1272 5.69125C17.1272 4.81247 16.4391 4.13265 15.5686 4.13265C14.6981 4.13265 14.01 4.81247 14.01 5.69125C14.01 6.55346 14.6981 7.24986 15.5686 7.24986ZM13.9934 9.86135C14.3996 9.86135 14.723 9.52973 14.723 9.1235C14.723 8.72556 14.3996 8.39394 13.9934 8.39394C13.5954 8.39394 13.2556 8.72556 13.2556 9.1235C13.2556 9.52973 13.5954 9.86135 13.9934 9.86135ZM22.3336 6.28817C22.7315 6.28817 23.0549 5.96483 23.0549 5.5586C23.0549 5.15238 22.7315 4.82076 22.3336 4.82076C21.9274 4.82076 21.604 5.15238 21.604 5.5586C21.604 5.96483 21.9274 6.28817 22.3336 6.28817ZM19.9377 6.82704L18.3874 8.37736C18.1718 8.6012 18.1718 8.96598 18.3874 9.18982C18.6195 9.41366 18.9842 9.41366 19.2081 9.18982L20.7584 7.6478C20.974 7.42395 20.974 7.05089 20.7584 6.82704C20.5346 6.61149 20.1615 6.61149 19.9377 6.82704ZM16.8619 9.91109L12.6338 14.1309C12.4182 14.3548 12.4182 14.7279 12.6338 14.9517C12.8576 15.1673 13.2307 15.1673 13.4545 14.9517L17.6744 10.7236C17.8816 10.508 17.8816 10.1432 17.6744 9.91109C17.4422 9.70383 17.0775 9.70383 16.8619 9.91109ZM23.088 13.7247C23.5937 13.7247 24 13.3185 24 12.8044C24 12.307 23.5937 11.9008 23.088 11.9008C22.574 11.9008 22.1761 12.307 22.1761 12.8044C22.1761 13.3185 22.574 13.7247 23.088 13.7247ZM19.5231 14.0646C20.261 14.0646 20.8496 13.4926 20.8496 12.7547C20.8496 12.0252 20.261 11.4365 19.5231 11.4365C18.7936 11.4365 18.2215 12.0252 18.2215 12.7547C18.2215 13.4926 18.7936 14.0646 19.5231 14.0646ZM22.773 17.9694C23.2787 17.9694 23.6849 17.5715 23.6849 17.0574C23.6849 16.5518 23.2787 16.1455 22.773 16.1455C22.2672 16.1455 21.861 16.5518 21.861 17.0574C21.861 17.5715 22.2672 17.9694 22.773 17.9694ZM20.2444 16.046C18.2381 15.6647 16.2733 15.6647 14.2421 16.046C13.9437 16.1124 13.6866 16.3196 13.695 16.6264C13.695 16.9331 13.9437 17.2564 14.2753 17.1901C16.2567 16.817 18.2547 16.8088 20.2112 17.1818C20.5263 17.2482 20.7916 16.9414 20.7998 16.6264C20.8081 16.303 20.5428 16.1041 20.2444 16.046Z" />
</g>
<defs>
<clipPath id="clip0_31_10469">
<rect width="21" height="20.7842" transform="translate(3 4)"/>
</clipPath>
</defs>
</svg>
