<svg width="50" height="50" viewBox="0 0 50 50" fill="none" xmlns="http://www.w3.org/2000/svg">
<circle cx="25" cy="25" r="25" fill="#2A2A2A"/>
<path d="M18 24.8753C18 25.1309 18.092 25.3559 18.2863 25.5501L26.3947 33.4745C26.5685 33.6586 26.7935 33.7506 27.0593 33.7506C27.591 33.7506 28 33.3518 28 32.8201C28 32.5543 27.8875 32.3293 27.7239 32.1555L20.2802 24.8753L27.7239 17.5951C27.8875 17.4213 28 17.1861 28 16.9305C28 16.3988 27.591 16 27.0593 16C26.7935 16 26.5685 16.092 26.3947 16.2658L18.2863 24.2004C18.092 24.3845 18 24.6197 18 24.8753Z" fill="white"/>
</svg>
