<svg width="10" height="10" viewBox="0 0 10 10" fill="none" xmlns="http://www.w3.org/2000/svg">
<g clip-path="url(#clip0_2032_83)">
<path fill-rule="evenodd" clip-rule="evenodd" d="M4.70673 7.0157C4.7869 7.09575 4.8952 7.14138 5.00857 7.14286C5.12194 7.14138 5.23024 7.09575 5.31041 7.0157C5.39058 6.93564 5.43628 6.82749 5.43776 6.71429V1.46284L6.99431 3.01716C7.03394 3.05722 7.08118 3.08898 7.13326 3.11057C7.18534 3.13216 7.24122 3.14314 7.29761 3.14287C7.354 3.14314 7.40987 3.13216 7.46195 3.11057C7.51404 3.08898 7.56128 3.05722 7.6009 3.01716C7.68127 2.9368 7.72642 2.82787 7.72642 2.7143C7.72642 2.60073 7.68127 2.4918 7.6009 2.41144L5.32234 0.136157C5.31898 0.13256 5.31555 0.129016 5.31205 0.125526C5.23156 0.0451529 5.1224 0 5.00857 0C4.89474 0 4.78558 0.0451529 4.70509 0.125526C4.70129 0.12932 4.69757 0.133177 4.69393 0.137096L2.4163 2.41144C2.34049 2.49269 2.29922 2.60014 2.30118 2.71117C2.30314 2.8222 2.34818 2.92813 2.42682 3.00666C2.50545 3.08518 2.61154 3.13016 2.72273 3.13212C2.83392 3.13407 2.94153 3.09286 3.02289 3.01716L4.57938 1.4629V6.71429C4.58086 6.82749 4.62656 6.93564 4.70673 7.0157ZM8.56797 10H1.44916C1.25071 9.99195 1.05581 9.94487 0.875598 9.86149C0.695389 9.77811 0.533414 9.66006 0.398941 9.51411C0.264468 9.36815 0.160136 9.19715 0.0919151 9.01089C0.0236945 8.82462 -0.00707575 8.62676 0.00136493 8.42861V6.71432C0.00136493 6.60066 0.0465828 6.49165 0.127071 6.41128C0.20756 6.3309 0.316726 6.28575 0.430554 6.28575C0.544381 6.28575 0.653547 6.3309 0.734036 6.41128C0.814524 6.49165 0.859742 6.60066 0.859742 6.71432V8.42861C0.844967 8.59828 0.896162 8.76712 1.00271 8.90011C1.10926 9.0331 1.26298 9.12004 1.43199 9.14289H8.56797C8.73699 9.12004 8.89071 9.0331 8.99726 8.90011C9.1038 8.76712 9.155 8.59828 9.14022 8.42861V6.71432C9.14022 6.60066 9.18544 6.49165 9.26593 6.41128C9.34642 6.3309 9.45558 6.28575 9.56941 6.28575C9.68324 6.28575 9.79241 6.3309 9.87289 6.41128C9.95338 6.49165 9.9986 6.60066 9.9986 6.71432V8.42861C10.0157 8.82596 9.87504 9.214 9.60712 9.50829C9.33919 9.80258 8.96572 9.97931 8.56797 10Z" fill="white"/>
</g>
<defs>
<clipPath id="clip0_2032_83">
<rect width="10" height="10" fill="white"/>
</clipPath>
</defs>
</svg>
