<svg width="40" height="41" viewBox="0 0 40 41" fill="none" xmlns="http://www.w3.org/2000/svg">
<circle cx="20" cy="20.3936" r="20" fill="#EF6147"/>
<g clip-path="url(#clip0_133_4564)">
<path fill-rule="evenodd" clip-rule="evenodd" d="M19.7067 22.4092C19.7869 22.4893 19.8952 22.5349 20.0086 22.5364C20.1219 22.5349 20.2302 22.4893 20.3104 22.4092C20.3906 22.3292 20.4363 22.221 20.4378 22.1078V16.8564L21.9943 18.4107C22.0339 18.4508 22.0812 18.4825 22.1333 18.5041C22.1853 18.5257 22.2412 18.5367 22.2976 18.5364C22.354 18.5367 22.4099 18.5257 22.462 18.5041C22.514 18.4825 22.5613 18.4508 22.6009 18.4107C22.6813 18.3304 22.7264 18.2214 22.7264 18.1079C22.7264 17.9943 22.6813 17.8854 22.6009 17.805L20.3223 15.5297C20.319 15.5261 20.3155 15.5226 20.3121 15.5191C20.2316 15.4387 20.1224 15.3936 20.0086 15.3936C19.8947 15.3936 19.7856 15.4387 19.7051 15.5191C19.7013 15.5229 19.6976 15.5267 19.6939 15.5306L17.4163 17.805C17.3405 17.8862 17.2992 17.9937 17.3012 18.1047C17.3031 18.2158 17.3482 18.3217 17.4268 18.4002C17.5055 18.4787 17.6115 18.5237 17.7227 18.5257C17.8339 18.5276 17.9415 18.4864 18.0229 18.4107L19.5794 16.8565V22.1078C19.5809 22.221 19.6266 22.3292 19.7067 22.4092ZM23.568 25.3936H16.4492C16.2507 25.3855 16.0558 25.3384 15.8756 25.255C15.6954 25.1717 15.5334 25.0536 15.3989 24.9077C15.2645 24.7617 15.1601 24.5907 15.0919 24.4044C15.0237 24.2182 14.9929 24.0203 15.0014 23.8222V22.1079C15.0014 21.9942 15.0466 21.8852 15.1271 21.8048C15.2076 21.7245 15.3167 21.6793 15.4306 21.6793C15.5444 21.6793 15.6535 21.7245 15.734 21.8048C15.8145 21.8852 15.8597 21.9942 15.8597 22.1079V23.8222C15.845 23.9918 15.8962 24.1607 16.0027 24.2937C16.1093 24.4267 16.263 24.5136 16.432 24.5364H23.568C23.737 24.5136 23.8907 24.4267 23.9973 24.2937C24.1038 24.1607 24.155 23.9918 24.1402 23.8222V22.1079C24.1402 21.9942 24.1854 21.8852 24.2659 21.8048C24.3464 21.7245 24.4556 21.6793 24.5694 21.6793C24.6832 21.6793 24.7924 21.7245 24.8729 21.8048C24.9534 21.8852 24.9986 21.9942 24.9986 22.1079V23.8222C25.0157 24.2195 24.875 24.6076 24.6071 24.9018C24.3392 25.1961 23.9657 25.3729 23.568 25.3936Z" fill="white"/>
</g>
<defs>
<clipPath id="clip0_133_4564">
<rect width="10" height="10" fill="white" transform="translate(15 15.3936)"/>
</clipPath>
</defs>
</svg>
