<svg width="15" height="14" viewBox="0 0 15 14" fill="none" xmlns="http://www.w3.org/2000/svg">
<path d="M7.4969 8.14388C7.70203 8.14388 7.90095 8.06845 8.09367 7.90605L14.3038 2.80162C13.9681 2.59281 13.5827 2.5 13.0481 2.5H1.95193C1.41733 2.5 1.03191 2.59281 0.690013 2.80162L6.90013 7.90605C7.09905 8.06845 7.29797 8.14388 7.4969 8.14388ZM0.161625 11.5603L4.76171 7.27379L0.149192 3.48028C0.0808125 3.60209 0 3.89792 0 4.29815V10.7019C0 11.0731 0.0621636 11.3399 0.161625 11.5603ZM1.76544 12.5H13.2346C13.6884 12.5 14.0427 12.3956 14.2789 12.2448L9.5483 7.83061L8.64073 8.58471C8.28018 8.8805 7.88854 9.03132 7.4969 9.03132C7.11146 9.03132 6.71988 8.8805 6.35932 8.58471L5.4517 7.83061L0.721098 12.2448C0.957317 12.3956 1.30543 12.5 1.76544 12.5ZM14.8384 11.5603C14.9316 11.3399 15 11.0731 15 10.7019V4.29815C15 3.89792 14.9192 3.60209 14.8508 3.48028L10.2383 7.27379L14.8384 11.5603Z" fill="#1A1A1A"/>
</svg>
