<svg width="17" height="15" viewBox="0 0 17 15" fill="none" xmlns="http://www.w3.org/2000/svg">
<path d="M11.5245 14.3846C12.6382 14.3846 13.5494 13.4734 13.5494 12.3598C13.5494 11.2461 12.6382 10.335 11.5245 10.335C10.4109 10.335 9.49131 11.2461 9.49131 12.3598C9.49131 13.4734 10.4109 14.3846 11.5245 14.3846ZM11.5245 13.3469C10.9678 13.3469 10.5374 12.9082 10.5374 12.3598C10.5374 11.7945 10.9678 11.3727 11.5245 11.3727C12.0813 11.3727 12.5116 11.7945 12.5116 12.3598C12.5116 12.9082 12.0813 13.3469 11.5245 13.3469ZM10.1831 11.6764H0.674937C0.295285 11.6764 0 11.9801 0 12.3598C0 12.7394 0.295285 13.0347 0.674937 13.0347H10.1831V11.6764ZM16.3503 11.6764H12.9926V13.0347H16.3503C16.6963 13.0347 17 12.7394 17 12.3598C17 11.9801 16.6963 11.6764 16.3503 11.6764ZM5.56824 9.23815C6.68188 9.23815 7.59306 8.31858 7.59306 7.20492C7.59306 6.09128 6.68188 5.18011 5.56824 5.18011C4.45459 5.18011 3.54343 6.09128 3.54343 7.20492C3.54343 8.31858 4.45459 9.23815 5.56824 9.23815ZM5.56824 8.19202C5.01985 8.19202 4.58114 7.75329 4.58114 7.20492C4.58114 6.64811 5.01985 6.21783 5.56824 6.21783C6.12506 6.21783 6.55533 6.64811 6.55533 7.20492C6.55533 7.75329 6.12506 8.19202 5.56824 8.19202ZM0.641191 6.52155C0.295285 6.52155 0 6.82528 0 7.20492C0 7.58461 0.295285 7.87985 0.641191 7.87985H4.11712V6.52155H0.641191ZM16.3166 6.52155H6.90967V7.87985H16.3166C16.6963 7.87985 17 7.58461 17 7.20492C17 6.82528 16.6963 6.52155 16.3166 6.52155ZM11.5245 4.07491C12.6382 4.07491 13.5494 3.16374 13.5494 2.0501C13.5494 0.936447 12.6382 0.0168457 11.5245 0.0168457C10.4109 0.0168457 9.49131 0.936447 9.49131 2.0501C9.49131 3.16374 10.4109 4.07491 11.5245 4.07491ZM11.5245 3.03719C10.9678 3.03719 10.5374 2.59848 10.5374 2.04166C10.5374 1.48483 10.9678 1.05456 11.5245 1.05456C12.0813 1.05456 12.5116 1.48483 12.5116 2.04166C12.5116 2.59848 12.0813 3.03719 11.5245 3.03719ZM10.2253 1.37516H0.674937C0.295285 1.37516 0 1.67044 0 2.0501C0 2.42975 0.295285 2.73347 0.674937 2.73347H10.2253V1.37516ZM16.3503 1.37516H12.8744V2.73347H16.3503C16.6963 2.73347 17 2.42975 17 2.0501C17 1.67044 16.6963 1.37516 16.3503 1.37516Z" fill="#EF6147"/>
</svg>
