<svg width="22" height="21" viewBox="0 0 22 21" fill="none" xmlns="http://www.w3.org/2000/svg">
<g clip-path="url(#clip0_195_2144)">
<path d="M9.09511 9.61778H16.5243C17.1983 9.61778 17.5921 9.23915 17.5921 8.5727V3.158C17.5921 2.49157 17.1983 2.10535 16.5243 2.10535H9.09511C8.42109 2.10535 8.02734 2.49157 8.02734 3.158V8.5727C8.02734 9.23915 8.42109 9.61778 9.09511 9.61778Z" fill="#F9FAFB"/>
<path d="M7.94419 15.1082H17.6831C19.1901 15.1082 20.1822 14.1238 20.1822 12.6319V5.55108C20.1822 4.05163 19.1901 3.07471 17.6831 3.07471H7.94419C6.43714 3.07471 5.4375 4.05163 5.4375 5.55108V12.6319C5.4375 14.1238 6.43714 15.1082 7.94419 15.1082Z" fill="url(#paint0_linear_195_2144)"/>
<path d="M7.86075 14.0783H17.7663C18.6523 14.0783 19.1521 13.586 19.1521 12.7152V5.46776C19.1521 4.59686 18.6523 4.10461 17.7663 4.10461H7.86075C6.97471 4.10461 6.46729 4.59686 6.46729 5.46776V12.7152C6.46729 13.586 6.97471 14.0783 7.86075 14.0783Z" fill="#F9FAFB"/>
<path d="M7.25492 20.0912H18.3645C20.6213 20.0912 21.9617 18.766 21.9617 16.5243V8.74686C21.9617 6.50521 20.6213 5.17993 18.3645 5.17993H7.25492C4.99814 5.17993 3.65771 6.50521 3.65771 8.74686V16.5243C3.65771 18.766 4.99814 20.0912 7.25492 20.0912Z" fill="url(#paint1_linear_195_2144)"/>
<path d="M7.2549 18.8719H18.3645C19.9473 18.8719 20.7425 18.0844 20.7425 16.5243V8.74684C20.7425 7.18677 19.9473 6.39917 18.3645 6.39917H7.2549C5.67212 6.39917 4.87695 7.18677 4.87695 8.74684V16.5243C4.87695 18.0844 5.67212 18.8719 7.2549 18.8719Z" fill="#F9FAFB"/>
<path d="M4.8846 21.0001C7.54275 21.0001 9.76165 18.7812 9.76165 16.123C9.76165 13.4422 7.55787 11.2384 4.8846 11.2384C2.20375 11.2384 0 13.4422 0 16.123C0 18.8039 2.19618 21.0001 4.8846 21.0001Z" fill="url(#paint2_linear_195_2144)"/>
<path d="M4.88469 19.97C6.96724 19.97 8.73178 18.2207 8.73178 16.123C8.73178 14.0101 6.98999 12.2759 4.88469 12.2759C2.77182 12.2759 1.0376 14.0101 1.0376 16.123C1.0376 18.2359 2.77182 19.97 4.88469 19.97Z" fill="#F9FAFB"/>
<path d="M4.88467 19.084C3.77901 19.084 2.90054 18.5084 2.6582 17.9859V17.948C2.90811 17.4785 3.68056 16.956 4.88467 16.956C6.08879 16.956 6.86124 17.4785 7.10358 17.9556V17.9859C6.85368 18.516 5.99033 19.084 4.88467 19.084ZM4.8771 16.3501C4.18038 16.3501 3.6427 15.767 3.6427 14.987C3.6427 14.2751 4.18796 13.6769 4.8771 13.6769C5.57382 13.6769 6.11908 14.2751 6.11908 14.987C6.11908 15.767 5.57382 16.3501 4.8771 16.3501Z" fill="url(#paint3_linear_195_2144)"/>
</g>
<defs>
<linearGradient id="paint0_linear_195_2144" x1="12.7677" y1="7.43686" x2="12.8013" y2="15.1083" gradientUnits="userSpaceOnUse">
<stop stop-color="#EF6147"/>
<stop offset="1" stop-color="#EA563B"/>
</linearGradient>
<linearGradient id="paint1_linear_195_2144" x1="12.7574" y1="10.5853" x2="12.7989" y2="20.0912" gradientUnits="userSpaceOnUse">
<stop stop-color="#EF6147"/>
<stop offset="1" stop-color="#EA563B"/>
</linearGradient>
<linearGradient id="paint2_linear_195_2144" x1="4.85293" y1="14.777" x2="4.8863" y2="21" gradientUnits="userSpaceOnUse">
<stop stop-color="#EF6147"/>
<stop offset="1" stop-color="#EA563B"/>
</linearGradient>
<linearGradient id="paint3_linear_195_2144" x1="4.86819" y1="15.6369" x2="4.89067" y2="19.0839" gradientUnits="userSpaceOnUse">
<stop stop-color="#EF6147"/>
<stop offset="1" stop-color="#EA563B"/>
</linearGradient>
<clipPath id="clip0_195_2144">
<rect width="21.9618" height="21" fill="white"/>
</clipPath>
</defs>
</svg>
