<svg width="38" height="43" viewBox="0 0 38 43" fill="none" xmlns="http://www.w3.org/2000/svg">
<path d="M27.1429 15.0164C27.1429 13.0202 26.6755 10.6989 24.4986 8.14879L19.2822 11.7406C19.8913 12.7071 20.22 13.8723 20.22 15.1639C20.22 19.0357 17.4701 21.339 13.5443 21.339C9.02753 21.339 6.96814 18.4456 6.96814 15.1639C6.96814 12.0267 9.12703 8.93761 13.5956 8.93761C14.4036 8.93761 15.1454 9.04299 15.8208 9.23267L18.0762 3.31952C16.5294 2.90102 14.6087 2.71436 13.5956 2.71436C7.0194 2.71436 0 6.83008 0 15.1639C0 22.7119 4.76101 27.2702 13.5986 27.2702C18.1154 27.2702 19.831 29.3777 19.831 31.7291C19.831 35.0139 16.4932 35.8449 13.3996 35.896C10.0135 35.8479 7.11589 34.3756 6.87165 30.5519H0.147745C0.0482432 37.3653 4.46854 42.1193 13.2036 42.0711C20.1747 42.0229 26.7992 39.1808 26.7992 31.6328C26.7992 30.0642 26.6514 26.5356 22.0381 23.8891C25.4755 21.9261 27.1429 19.1321 27.1429 15.0164Z" fill="white"/>
<path d="M13.5713 16.2857L19.7991 12.1333L25.2214 8.51994L37.9999 0L19.9809 0.0121154L18.5454 3.66179L16.201 9.6103L13.5713 16.2857Z" fill="#F7901E"/>
</svg>
