<svg width="155" height="149" viewBox="0 0 155 149" fill="none" xmlns="http://www.w3.org/2000/svg">
<path d="M-57.3886 120.383C-55.2654 117.979 -55.9289 114.841 -58.3175 112.104C-67.2086 102.155 -72.1848 89.0684 -72.1848 74.7135C-72.1848 60.3585 -67.2086 47.2718 -58.3175 37.3233C-55.9289 34.5858 -55.2654 31.4477 -57.3886 29.0441C-59.5119 26.5069 -63.2275 26.5737 -65.7488 29.3779C-76.7631 41.3961 -83 57.4203 -83 74.7135C-83 92.0061 -76.7631 107.964 -65.7488 120.049C-63.2275 122.853 -59.5119 122.853 -57.3886 120.383ZM129.322 120.383C131.512 122.853 135.161 122.853 137.749 120.049C148.763 107.964 155 92.0061 155 74.7135C155 57.4203 148.763 41.3961 137.749 29.3779C135.161 26.5737 131.512 26.5069 129.322 29.0441C127.265 31.4477 127.862 34.5858 130.317 37.3233C139.208 47.2718 144.185 60.3585 144.185 74.7135C144.185 89.0684 139.208 102.155 130.317 112.104C127.862 114.841 127.265 117.979 129.322 120.383Z" fill="#E44F34"/>
<path d="M-38.8105 101.354C-36.6873 98.9501 -37.5498 95.9453 -39.6731 93.0743C-43.6541 88.0667 -45.5782 81.657 -45.5782 74.7134C-45.5782 67.7693 -43.6541 61.2929 -39.6731 56.3521C-37.5498 53.4811 -36.6873 50.4766 -38.8105 48.0729C-41.0001 45.5357 -44.9811 45.5357 -47.3034 48.5403C-53.0759 55.7512 -56.3934 64.8983 -56.3934 74.7134C-56.3934 84.528 -53.0759 93.6754 -47.3034 100.886C-44.9811 103.891 -41.0001 103.824 -38.8105 101.354ZM110.744 101.354C112.934 103.824 116.914 103.891 119.303 100.886C125.076 93.6754 128.393 84.528 128.393 74.7134C128.393 64.8983 125.076 55.7512 119.303 48.5403C116.914 45.5357 112.934 45.5357 110.744 48.0729C108.621 50.4766 109.549 53.4811 111.606 56.3521C115.587 61.2929 117.578 67.7693 117.578 74.7134C117.578 81.657 115.587 88.0667 111.606 93.0743C109.549 95.9453 108.621 98.9501 110.744 101.354Z" fill="#E44F34"/>
<path d="M35.9667 138.41C71.0661 138.41 99.3978 109.833 99.3978 74.5795C99.3978 39.3263 71.0661 10.7496 35.9667 10.7496C0.933502 10.7496 -27.4645 39.3263 -27.4645 74.5795C-27.4645 109.833 0.933502 138.41 35.9667 138.41ZM35.9667 127.059C7.17068 127.059 -16.1185 103.557 -16.1185 74.5795C-16.1185 45.6692 7.17068 22.2337 35.9667 22.2337C64.6964 22.2337 88.0519 45.6692 88.0519 74.5795C88.0519 103.557 64.6964 127.059 35.9667 127.059ZM-18.5073 27.909C-17.5119 27.909 -16.7821 27.7087 -15.853 26.9742L6.37461 10.1487C7.43623 9.28076 8.03299 8.27919 8.03299 7.14418C8.03299 5.74202 7.36941 4.60699 6.24156 3.5387C3.7203 1.20182 -0.791683 0 -4.70634 0C-15.1231 0 -23.4173 8.34596 -23.4173 18.695C-23.4173 21.2322 -22.9525 23.7026 -22.2889 25.2383C-21.5591 26.8407 -20.1657 27.909 -18.5073 27.909ZM90.5069 27.909C92.0996 27.909 93.493 26.7739 94.289 25.2383C95.0189 23.7694 95.3506 21.2322 95.3506 18.695C95.3506 8.34596 87.1233 0 76.7059 0C72.725 0 68.2798 1.20182 65.758 3.5387C64.5639 4.60699 63.9003 5.74202 63.9003 7.14418C63.9003 8.27919 64.4977 9.28076 65.6255 10.1487L87.8531 26.9742C88.7817 27.7087 89.5121 27.909 90.5069 27.909ZM-19.5027 136.54C-17.5119 138.543 -14.2608 138.543 -12.2039 136.473L0.336735 123.921L-6.82956 116.71L-19.4358 129.329C-21.4928 131.333 -21.4266 134.604 -19.5027 136.54ZM91.5022 136.54C93.4267 134.604 93.493 131.333 91.436 129.329L78.8291 116.71L71.6634 123.921L84.1372 136.473C86.1942 138.543 89.4453 138.543 91.5022 136.54ZM5.77728 81.9908H35.9004C38.5547 81.9908 40.5449 79.9209 40.5449 77.3171V36.8559C40.5449 34.2519 38.5547 32.2489 35.9004 32.2489C33.3792 32.2489 31.3222 34.2519 31.3222 36.8559V72.7101H5.77728C3.18978 72.7101 1.19905 74.7134 1.19905 77.3171C1.19905 79.9209 3.18978 81.9908 5.77728 81.9908Z" fill="#E44F34"/>
</svg>
