<svg width="164" height="146" viewBox="0 0 164 146" fill="none" xmlns="http://www.w3.org/2000/svg">
<path d="M-51.4235 119.686H87.1711C97.5495 119.686 103.82 113.416 103.82 103.037V16.6229C103.82 6.24455 97.5495 0.0463867 87.1711 0.0463867H-51.4235C-61.7297 0.0463867 -68 6.24455 -68 16.6229V103.037C-68 113.416 -61.7297 119.686 -51.4235 119.686ZM-51.2072 108.082C-54.3784 108.082 -56.3964 106.064 -56.3964 102.893V16.8392C-56.3964 13.5959 -54.3784 11.65 -51.2072 11.65H87.0266C90.1982 11.65 92.2161 13.5959 92.2161 16.8392V102.893C92.2161 106.064 90.1982 108.082 87.0266 108.082H-51.2072ZM-4.86512 136.839H40.6847V118.749H-4.86512V136.839ZM-5.29748 145.271H41.117C44.288 145.271 46.8828 142.677 46.8828 139.434C46.8828 136.19 44.288 133.596 41.117 133.596H-5.29748C-8.46855 133.596 -11.1353 136.19 -11.1353 139.434C-11.1353 142.677 -8.46855 145.271 -5.29748 145.271Z" fill="#E44F34"/>
<path d="M30.0177 107.937C30.0177 120.549 36.2158 126.387 48.5401 126.387H145.549C157.874 126.387 164 120.549 164 107.937V52.8736C164 40.261 157.874 34.3511 145.549 34.3511H48.5401C36.2158 34.3511 30.0177 40.261 30.0177 52.8736V107.937Z" fill="#EF6147"/>
<path d="M30.0177 107.937C30.0177 120.549 36.2158 126.387 48.5401 126.387H145.549C157.874 126.387 164 120.549 164 107.937V52.8736C164 40.261 157.874 34.3511 145.549 34.3511H48.5401C36.2158 34.3511 30.0177 40.261 30.0177 52.8736V107.937ZM41.6212 107.72V53.0898C41.6212 47.9727 43.7836 45.9547 48.7566 45.9547H145.333C150.234 45.9547 152.396 47.9727 152.396 53.0898V107.72C152.396 112.765 150.234 114.784 145.333 114.784H48.7566C43.7836 114.784 41.6212 112.765 41.6212 107.72ZM77.9458 136.837H116.144V119.54H77.9458V136.837ZM77.5134 145.27H116.504C119.747 145.27 122.342 142.675 122.342 139.432C122.342 136.189 119.747 133.594 116.504 133.594H77.5134C74.3418 133.594 71.6751 136.189 71.6751 139.432C71.6751 142.675 74.3418 145.27 77.5134 145.27Z" fill="#E44F34"/>
</svg>
