<svg width="136" height="160" viewBox="0 0 136 160" fill="none" xmlns="http://www.w3.org/2000/svg">
<path d="M-43.5399 161H107.753C126.118 161 135.213 151.993 135.213 133.977V27.1103C135.213 9.09507 126.118 0 107.753 0H-43.5399C-61.8175 0 -71 9.09507 -71 27.1103V133.977C-71 151.993 -61.8175 161 -43.5399 161ZM-43.365 146.92C-52.1102 146.92 -56.9201 142.285 -56.9201 133.191V27.8974C-56.9201 18.8023 -52.1102 14.0799 -43.365 14.0799H107.578C116.236 14.0799 121.133 18.8023 121.133 27.8974V133.191C121.133 142.285 116.236 146.92 107.578 146.92H-43.365Z" fill="#E44F34"/>
<path d="M-29.5474 47.8366C-24.9999 47.8366 -21.4144 44.1635 -21.4144 39.7034C-21.4144 35.1559 -24.9999 31.5704 -29.5474 31.5704C-33.9201 31.5704 -37.6806 35.2434 -37.6806 39.7034C-37.6806 44.0761 -33.9201 47.8366 -29.5474 47.8366ZM-29.5474 74.597C-24.9999 74.597 -21.4144 70.924 -21.4144 66.4639C-21.4144 61.9164 -24.9999 58.3309 -29.5474 58.3309C-33.9201 58.3309 -37.6806 62.0038 -37.6806 66.4639C-37.6806 70.8366 -33.9201 74.597 -29.5474 74.597ZM-29.5474 101.27C-24.9999 101.27 -21.4144 97.6841 -21.4144 93.1372C-21.4144 88.6768 -24.9999 85.091 -29.5474 85.091C-34.0076 85.091 -37.6806 88.7641 -37.6806 93.1372C-37.6806 97.6841 -34.0076 101.27 -29.5474 101.27ZM-29.5474 129.342C-24.9999 129.342 -21.4144 125.669 -21.4144 121.209C-21.4144 116.662 -24.9999 112.988 -29.5474 112.988C-33.9201 112.988 -37.6806 116.749 -37.6806 121.209C-37.6806 125.582 -33.9201 129.342 -29.5474 129.342ZM-3.13677 45.0381H96.909C100.058 45.0381 102.419 42.6768 102.419 39.7034C102.419 36.6426 99.9702 34.1939 96.909 34.1939H-3.13677C-6.19764 34.1939 -8.64628 36.6426 -8.64628 39.7034C-8.64628 42.6768 -6.28503 45.0381 -3.13677 45.0381ZM-3.13677 71.886H52.3079C55.2818 71.886 57.7303 69.4373 57.7303 66.4639C57.7303 63.4905 55.2818 60.9544 52.3079 60.9544H-3.13677C-6.19764 60.9544 -8.64628 63.4905 -8.64628 66.4639C-8.64628 69.4373 -6.19764 71.886 -3.13677 71.886ZM-3.13677 98.6468H96.909C100.058 98.6468 102.419 96.2849 102.419 93.1372C102.419 90.1633 100.058 87.8021 96.909 87.8021H-3.13677C-6.28503 87.8021 -8.64628 90.1633 -8.64628 93.1372C-8.64628 96.2849 -6.28503 98.6468 -3.13677 98.6468ZM-3.13677 126.632H52.3079C55.2818 126.632 57.7303 124.182 57.7303 121.209C57.7303 118.148 55.3691 115.787 52.3079 115.787H-3.13677C-6.28503 115.787 -8.64628 118.148 -8.64628 121.209C-8.64628 124.182 -6.19764 126.632 -3.13677 126.632Z" fill="#E44F34"/>
</svg>
