<svg width="135" height="147" viewBox="0 0 135 147" fill="none" xmlns="http://www.w3.org/2000/svg">
<path d="M-26.2315 146.534H110.231C126.797 146.534 135 138.336 135 121.939V24.6744C135 8.27788 126.797 0 110.231 0H-26.2315C-42.7175 0 -51 8.27788 -51 24.6744V121.939C-51 138.336 -42.7175 146.534 -26.2315 146.534ZM-26.0738 133.72C-33.9618 133.72 -38.3002 129.501 -38.3002 121.224V25.3908C-38.3002 17.1129 -33.9618 12.8148 -26.0738 12.8148H110.074C117.883 12.8148 122.3 17.1129 122.3 25.3908V121.224C122.3 129.501 117.883 133.72 110.074 133.72H-26.0738Z" fill="#E44F34"/>
<path d="M-16.058 106.736H27.563C35.2143 106.736 38.843 102.996 38.843 95.5934V51.0999C38.843 43.6975 35.2143 39.9565 27.563 39.9565H-16.058C-23.5518 39.9565 -27.338 43.618 -27.338 51.0999V95.5934C-27.338 102.996 -23.5518 106.736 -16.058 106.736ZM-18.1878 99.255C-15.8214 92.0914 -6.90795 85.4052 5.79181 85.4052C18.4914 85.4052 27.4048 92.0914 29.7715 99.255H-18.1878ZM5.79181 79.7542C-1.14967 79.7542 -6.59239 73.864 -6.59239 66.1433C-6.59239 58.741 -1.14967 52.851 5.79181 52.851C12.6544 52.851 18.097 58.741 18.097 66.1433C18.097 73.864 12.6544 79.7542 5.79181 79.7542ZM80.7282 105.861C85.8553 105.861 90.6674 105.384 93.7435 104.11C95.8732 103.234 97.1353 101.882 97.1353 99.8119C97.1353 97.8219 95.7157 96.2305 93.6647 96.2305C92.8758 96.2305 92.1657 96.4689 91.1406 96.6285C88.7739 96.9464 86.4866 97.902 81.5958 97.902C66.2933 97.902 56.8273 88.5893 56.8273 73.466C56.8273 58.5818 66.4508 48.3936 80.4919 48.3936C94.4536 48.3936 103.84 57.3083 103.84 70.521C103.84 78.4012 101.474 83.3356 97.6872 83.3356C95.3213 83.3356 94.3749 82.3012 94.3749 79.9926V60.2533C94.3749 57.8654 92.7183 56.0348 90.4304 56.0348C88.6951 56.0348 87.1173 57.3083 86.6441 58.9002V59.5369C84.7514 57.3083 82.1478 56.0348 78.3622 56.0348C70.0007 56.0348 64.1635 63.3575 64.1635 73.466C64.1635 83.8933 70.0008 90.9768 78.5984 90.9768C82.3847 90.9768 85.6978 89.3052 87.985 86.2807C89.7203 89.3052 93.0333 90.9768 96.9778 90.9768C105.812 90.9768 111.65 82.6992 111.65 70.0435C111.65 52.6917 98.8706 40.6729 80.4919 40.6729C61.4812 40.6729 48.4658 53.9653 48.4658 73.3866C48.4658 92.8874 61.4024 105.861 80.7282 105.861ZM79.7818 82.9376C75.5223 82.9376 72.9194 79.3561 72.9194 73.3071C72.9194 67.3372 75.6011 63.8351 79.8605 63.8351C84.1987 63.8351 86.8811 67.3372 86.8811 73.068C86.8811 79.1972 84.1987 82.9376 79.7818 82.9376Z" fill="#E44F34"/>
</svg>
