<svg width="140" height="160" viewBox="0 0 140 160" fill="none" xmlns="http://www.w3.org/2000/svg">
<g filter="url(#filter0_d_31_10958)">
<path d="M0 62.0667V44.3334C0 39.6302 1.86833 35.1196 5.19397 31.794C8.51962 28.4683 13.0302 26.6 17.7333 26.6H24.9419M0 62.0667V141.867C0 146.57 1.86833 151.08 5.19397 154.406C8.51962 157.732 13.0302 159.6 17.7333 159.6H115.267C119.97 159.6 124.48 157.732 127.806 154.406C131.132 151.08 133 146.57 133 141.867V62.0667M0 62.0667H133M133 62.0667V44.3334C133 39.6302 131.132 35.1196 127.806 31.794C124.48 28.4683 119.97 26.6 115.267 26.6H103.908M103.908 26.6H24.9331V0M103.908 26.6V0M31.0333 97.5334H101.967" stroke="#E44F34" stroke-width="12" stroke-linecap="round" stroke-linejoin="round" shape-rendering="crispEdges"/>
</g>
<defs>
<filter id="filter0_d_31_10958" x="-7" y="-7" width="147" height="173.6" filterUnits="userSpaceOnUse" color-interpolation-filters="sRGB">
<feFlood flood-opacity="0" result="BackgroundImageFix"/>
<feColorMatrix in="SourceAlpha" type="matrix" values="0 0 0 0 0 0 0 0 0 0 0 0 0 0 0 0 0 0 127 0" result="hardAlpha"/>
<feOffset/>
<feGaussianBlur stdDeviation="0.5"/>
<feComposite in2="hardAlpha" operator="out"/>
<feColorMatrix type="matrix" values="0 0 0 0 0 0 0 0 0 0 0 0 0 0 0 0 0 0 0.25 0"/>
<feBlend mode="normal" in2="BackgroundImageFix" result="effect1_dropShadow_31_10958"/>
<feBlend mode="normal" in="SourceGraphic" in2="effect1_dropShadow_31_10958" result="shape"/>
</filter>
</defs>
</svg>
