<svg width="140" height="160" viewBox="0 0 140 160" fill="none" xmlns="http://www.w3.org/2000/svg">
<path d="M100.631 89.4678L37.4555 89.4678C34.459 89.4678 32.2117 91.482 32.2117 94.0188C32.2117 96.6294 34.459 98.6436 37.4555 98.6436L100.631 98.6436C103.543 98.6436 105.708 96.6294 105.708 94.0188C105.708 91.482 103.543 89.4678 100.631 89.4678ZM100.631 115.504L37.4555 115.504C34.459 115.504 32.2117 117.592 32.2117 120.203C32.2117 122.74 34.459 124.679 37.4555 124.679L100.631 124.679C103.543 124.679 105.708 122.74 105.708 120.203C105.708 117.592 103.543 115.504 100.631 115.504ZM25.8026 159.443H114.197C131.427 159.443 140 151.61 140 136.093V68.356C140 58.7326 138.752 54.555 132.093 48.4378L86.2307 6.58701C79.905 0.768206 74.6611 -0.5 65.339 -0.5L25.8026 -0.5C8.65638 -0.5 0 7.40764 0 22.9245L0 136.093C0 151.684 8.57314 159.443 25.8026 159.443ZM26.3853 147.432C17.8121 147.432 13.4007 143.33 13.4007 135.869L13.4007 23.1482C13.4007 15.7629 17.8121 11.5106 26.4685 11.5106L63.5079 11.5106L63.5079 54.8534C63.5079 64.2532 68.7516 68.878 79.1557 68.878L126.599 68.878L126.599 135.869C126.599 143.33 122.188 147.432 113.532 147.432H26.3853ZM80.6544 57.6136C77.3246 57.6136 76.076 56.42 76.076 53.436V13.8232L124.019 57.6136H80.6544Z" fill="#E44F34"/>
</svg>
