<svg width="15" height="17" viewBox="0 0 15 17" fill="none" xmlns="http://www.w3.org/2000/svg">
<path d="M4.11002 12.0886C6.44821 14.5786 9.28799 16.5 11.61 16.5C12.6537 16.5 13.5679 16.1122 14.3042 15.2506C14.733 14.7423 15 14.1478 15 13.5619C15 13.1311 14.8462 12.7175 14.466 12.4246L11.9822 10.5463C11.61 10.2706 11.2864 10.1327 10.9951 10.1327C10.631 10.1327 10.2994 10.3567 9.92716 10.7444L9.35275 11.3476C9.26376 11.4424 9.15046 11.4855 9.04532 11.4855C8.92394 11.4855 8.80257 11.4337 8.72166 11.3906C8.22002 11.1063 7.36247 10.3223 6.56148 9.47792C5.7686 8.6335 5.03235 7.72026 4.77345 7.18604C4.733 7.09126 4.68446 6.97064 4.68446 6.8414C4.68446 6.7294 4.71682 6.61738 4.80582 6.52261L5.38025 5.89364C5.73623 5.4973 5.95468 5.15266 5.95468 4.75632C5.95468 4.44615 5.82523 4.11012 5.55015 3.70516L3.81067 1.0945C3.53559 0.680934 3.13106 0.5 2.69417 0.5C2.16019 0.5 1.61003 0.758479 1.13268 1.24959C0.347896 2.05088 0 3.04173 0 4.13597C0 6.60877 1.77184 9.60717 4.11002 12.0886Z" fill="#1A1A1A"/>
</svg>
