<svg width="18" height="22" viewBox="0 0 18 22" fill="none" xmlns="http://www.w3.org/2000/svg">
<path d="M15.4997 0.166992H8.99968V7.75033L6.29134 6.12533L3.58301 7.75033V0.166992H2.49968C1.92504 0.166992 1.37394 0.395265 0.96761 0.801594C0.561281 1.20792 0.333008 1.75902 0.333008 2.33366V19.667C0.333008 20.2416 0.561281 20.7927 0.96761 21.1991C1.37394 21.6054 1.92504 21.8337 2.49968 21.8337H15.4997C16.0743 21.8337 16.6254 21.6054 17.0317 21.1991C17.4381 20.7927 17.6663 20.2416 17.6663 19.667V2.33366C17.6663 1.75902 17.4381 1.20792 17.0317 0.801594C16.6254 0.395265 16.0743 0.166992 15.4997 0.166992ZM11.1663 11.0003C11.5949 11.0003 12.0138 11.1274 12.3701 11.3655C12.7264 11.6035 13.0041 11.9419 13.1681 12.3378C13.3321 12.7338 13.375 13.1694 13.2914 13.5897C13.2078 14.01 13.0014 14.396 12.6984 14.6991C12.3954 15.0021 12.0093 15.2084 11.589 15.292C11.1687 15.3756 10.7331 15.3327 10.3372 15.1687C9.94129 15.0047 9.6029 14.727 9.36483 14.3707C9.12675 14.0144 8.99968 13.5955 8.99968 13.167C8.99968 12.5924 9.22795 12.0413 9.63428 11.6349C10.0406 11.2286 10.5917 11.0003 11.1663 11.0003ZM15.4997 19.667H6.83301V18.5837C6.83301 17.1428 9.72551 16.417 11.1663 16.417C12.6072 16.417 15.4997 17.1428 15.4997 18.5837V19.667Z" fill="white"/>
</svg>
