<svg width="22" height="20" viewBox="0 0 22 20" fill="none" xmlns="http://www.w3.org/2000/svg">
<path d="M2.23828 9.09288H7.58203C9.07031 9.09288 9.82031 8.39844 9.82031 6.96615V2.11588C9.82031 0.683594 9.07031 0 7.58203 0H2.23828C0.75 0 0 0.683594 0 2.11588V6.96615C0 8.39844 0.75 9.09288 2.23828 9.09288ZM2.26172 7.56294C1.85156 7.56294 1.65234 7.36762 1.65234 6.96615V2.11588C1.65234 1.72526 1.85156 1.52995 2.26172 1.52995H7.54688C7.95703 1.52995 8.16797 1.72526 8.16797 2.11588V6.96615C8.16797 7.36762 7.95703 7.56294 7.54688 7.56294H2.26172ZM3.90234 5.68576H5.90625C6.07031 5.68576 6.14062 5.62066 6.14062 5.4362V3.63498C6.14062 3.46137 6.07031 3.39627 5.90625 3.39627H3.90234C3.72656 3.39627 3.66797 3.46137 3.66797 3.63498V5.4362C3.66797 5.62066 3.72656 5.68576 3.90234 5.68576ZM14.0039 9.09288H19.3359C20.8242 9.09288 21.5742 8.39844 21.5742 6.96615V2.11588C21.5742 0.683594 20.8242 0 19.3359 0H14.0039C12.5039 0 11.7539 0.683594 11.7539 2.11588V6.96615C11.7539 8.39844 12.5039 9.09288 14.0039 9.09288ZM14.0273 7.56294C13.6055 7.56294 13.4062 7.36762 13.4062 6.96615V2.11588C13.4062 1.72526 13.6055 1.52995 14.0273 1.52995H19.3125C19.7227 1.52995 19.9219 1.72526 19.9219 2.11588V6.96615C19.9219 7.36762 19.7227 7.56294 19.3125 7.56294H14.0273ZM15.7266 5.68576H17.7305C17.9062 5.68576 17.9766 5.62066 17.9766 5.4362V3.63498C17.9766 3.46137 17.9062 3.39627 17.7305 3.39627H15.7266C15.5625 3.39627 15.5039 3.46137 15.5039 3.63498V5.4362C15.5039 5.62066 15.5625 5.68576 15.7266 5.68576ZM2.23828 19.9762H7.58203C9.07031 19.9762 9.82031 19.2926 9.82031 17.8602V12.9991C9.82031 11.5777 9.07031 10.8832 7.58203 10.8832H2.23828C0.75 10.8832 0 11.5777 0 12.9991V17.8602C0 19.2926 0.75 19.9762 2.23828 19.9762ZM2.26172 18.4462C1.85156 18.4462 1.65234 18.2509 1.65234 17.8602V13.01C1.65234 12.6085 1.85156 12.4132 2.26172 12.4132H7.54688C7.95703 12.4132 8.16797 12.6085 8.16797 13.01V17.8602C8.16797 18.2509 7.95703 18.4462 7.54688 18.4462H2.26172ZM3.90234 16.5799H5.90625C6.07031 16.5799 6.14062 16.5148 6.14062 16.3194V14.529C6.14062 14.3554 6.07031 14.2903 5.90625 14.2903H3.90234C3.72656 14.2903 3.66797 14.3554 3.66797 14.529V16.3194C3.66797 16.5148 3.72656 16.5799 3.90234 16.5799ZM12.5508 13.6936H14.5547C14.7188 13.6936 14.7891 13.6285 14.7891 13.444V11.6428C14.7891 11.4692 14.7188 11.404 14.5547 11.404H12.5508C12.375 11.404 12.3164 11.4692 12.3164 11.6428V13.444C12.3164 13.6285 12.375 13.6936 12.5508 13.6936ZM18.7734 13.6936H20.7773C20.9414 13.6936 21.0117 13.6285 21.0117 13.444V11.6428C21.0117 11.4692 20.9414 11.404 20.7773 11.404H18.7734C18.5977 11.404 18.5391 11.4692 18.5391 11.6428V13.444C18.5391 13.6285 18.5977 13.6936 18.7734 13.6936ZM15.6914 16.5799H17.6953C17.8594 16.5799 17.9297 16.5148 17.9297 16.3194V14.529C17.9297 14.3554 17.8594 14.2903 17.6953 14.2903H15.6914C15.5156 14.2903 15.457 14.3554 15.457 14.529V16.3194C15.457 16.5148 15.5156 16.5799 15.6914 16.5799ZM12.5508 19.4553H14.5547C14.7188 19.4553 14.7891 19.3902 14.7891 19.2057V17.4045C14.7891 17.2309 14.7188 17.1658 14.5547 17.1658H12.5508C12.375 17.1658 12.3164 17.2309 12.3164 17.4045V19.2057C12.3164 19.3902 12.375 19.4553 12.5508 19.4553ZM18.7734 19.4553H20.7773C20.9414 19.4553 21.0117 19.3902 21.0117 19.2057V17.4045C21.0117 17.2309 20.9414 17.1658 20.7773 17.1658H18.7734C18.5977 17.1658 18.5391 17.2309 18.5391 17.4045V19.2057C18.5391 19.3902 18.5977 19.4553 18.7734 19.4553Z" fill="white"/>
</svg>
