<svg width="16" height="11" viewBox="0 0 16 11" fill="none" xmlns="http://www.w3.org/2000/svg">
<path d="M8.00008 0C4.66675 0 1.80008 2.06667 0.666748 5C1.80008 7.93333 4.66675 10 8.00008 10H8.73341C8.66675 9.8 8.66675 9.6 8.66675 9.33333C8.66675 9.06667 8.66675 8.86667 8.73341 8.6C8.46674 8.6 8.26675 8.66667 8.00008 8.66667C5.46675 8.66667 3.20008 7.26667 2.13341 5C3.20008 2.73333 5.46675 1.33333 8.00008 1.33333C10.5334 1.33333 12.8001 2.73333 13.8667 5C13.8001 5.13333 13.6667 5.26667 13.6001 5.46667C14.0667 5.6 14.4667 5.73333 14.8667 6C15.0667 5.66667 15.2001 5.33333 15.3334 5C14.2001 2.06667 11.3334 0 8.00008 0ZM8.00008 3C6.86675 3 6.00008 3.86667 6.00008 5C6.00008 6.13333 6.86675 7 8.00008 7C9.13341 7 10.0001 6.13333 10.0001 5C10.0001 3.86667 9.13341 3 8.00008 3ZM12.6667 11V9.66667H10.0001V8.33333H11.3334H12.6667V7L14.6667 9L12.6667 11Z" fill="white"/>
</svg>
